HIERARCHY
ROOT hip
{
  OFFSET 0 0 0
  CHANNELS 6 Xposition Yposition Zposition Zrotation Yrotation Xrotation
  JOINT abdomen
  {
    OFFSET 0 20.6881 -0.73152
    CHANNELS 3 Zrotation Xrotation Yrotation
    JOINT chest
    {
      OFFSET 0 11.7043 -0.48768
      CHANNELS 3 Zrotation Xrotation Yrotation
      JOINT neck
      {
        OFFSET 0 22.1894 -2.19456
        CHANNELS 3 Zrotation Xrotation Yrotation
        JOINT head
        {
          OFFSET -0.24384 7.07133 1.2192
          CHANNELS 3 Zrotation Xrotation Yrotation
          JOINT leftEye
          {
            OFFSET 4.14528 8.04674 8.04672
            CHANNELS 3 Zrotation Xrotation Yrotation
            End Site
            {
              OFFSET 1 0 0
            }
          }
          JOINT rightEye
          {
            OFFSET -3.6576 8.04674 8.04672
            CHANNELS 3 Zrotation Xrotation Yrotation
            End Site
            {
              OFFSET 1 0 0
            }
          }
        }
      }
      JOINT rCollar
      {
        OFFSET -2.68224 19.2634 -4.8768
        CHANNELS 3 Zrotation Xrotation Yrotation
        JOINT rShldr
        {
          OFFSET -8.77824 -1.95073 1.46304
          CHANNELS 3 Zrotation Xrotation Yrotation
          JOINT rForeArm
          {
            OFFSET -28.1742 -1.7115 0.48768
            CHANNELS 3 Zrotation Xrotation Yrotation
            JOINT rHand
            {
              OFFSET -22.5879 0.773209 7.07136
              CHANNELS 3 Zrotation Xrotation Yrotation
              JOINT rThumb1
              {
                OFFSET -1.2192 -0.487915 3.41376
                CHANNELS 3 Zrotation Xrotation Yrotation
                JOINT rThumb2
                {
                  OFFSET -3.37035 -0.52449 3.41376
                  CHANNELS 3 Zrotation Xrotation Yrotation
                  End Site
                  {
                    OFFSET -1.78271 -1.18214 1.43049
                  }
                }
              }
              JOINT rIndex1
              {
                OFFSET -7.75947 0.938293 5.60832
                CHANNELS 3 Zrotation Xrotation Yrotation
                JOINT rIndex2
                {
                  OFFSET -2.54057 -0.884171 1.56538
                  CHANNELS 3 Zrotation Xrotation Yrotation
                  End Site
                  {
                    OFFSET -1.62519 -0.234802 1.16502
                  }
                }
              }
              JOINT rMid1
              {
                OFFSET -8.24714 1.18213 3.41376
                CHANNELS 3 Zrotation Xrotation Yrotation
                JOINT rMid2
                {
                  OFFSET -3.10165 -0.590103 1.0647
                  CHANNELS 3 Zrotation Xrotation Yrotation
                  End Site
                  {
                    OFFSET -2.48547 -0.328903 0.83742
                  }
                }
              }
              JOINT rRing1
              {
                OFFSET -8.82822 0.546677 1.51678
                CHANNELS 3 Zrotation Xrotation Yrotation
                JOINT rRing2
                {
                  OFFSET -2.60934 -0.819778 -0.0198488
                  CHANNELS 3 Zrotation Xrotation Yrotation
                  End Site
                  {
                    OFFSET -2.33842 -0.294052 0.168128
                  }
                }
              }
              JOINT rPinky1
              {
                OFFSET -8.27202 -0.0477905 -0.4584
                CHANNELS 3 Zrotation Xrotation Yrotation
                JOINT rPinky2
                {
                  OFFSET -1.82734 -0.647385 -0.700984
                  CHANNELS 3 Zrotation Xrotation Yrotation
                  End Site
                  {
                    OFFSET -1.69225 -0.51767 -0.607171
                  }
                }
              }
            }
          }
        }
      }
      JOINT lCollar
      {
        OFFSET 2.68224 19.2634 -4.8768
        CHANNELS 3 Zrotation Xrotation Yrotation
        JOINT lShldr
        {
          OFFSET 8.77824 -1.95073 1.46304
          CHANNELS 3 Zrotation Xrotation Yrotation
          JOINT lForeArm
          {
            OFFSET 28.1742 -1.7115 0.48768
            CHANNELS 3 Zrotation Xrotation Yrotation
            JOINT lHand
            {
              OFFSET 22.5879 0.773209 7.07136
              CHANNELS 3 Zrotation Xrotation Yrotation
              JOINT lThumb1
              {
                OFFSET 1.2192 -0.487915 3.41376
                CHANNELS 3 Zrotation Xrotation Yrotation
                JOINT lThumb2
                {
                  OFFSET 3.37035 -0.52449 3.41376
                  CHANNELS 3 Zrotation Xrotation Yrotation
                  End Site
                  {
                    OFFSET 1.78271 -1.18214 1.43049
                  }
                }
              }
              JOINT lIndex1
              {
                OFFSET 7.75947 0.938293 5.60832
                CHANNELS 3 Zrotation Xrotation Yrotation
                JOINT lIndex2
                {
                  OFFSET 2.54057 -0.884171 1.56538
                  CHANNELS 3 Zrotation Xrotation Yrotation
                  End Site
                  {
                    OFFSET 1.62519 -0.234802 1.16502
                  }
                }
              }
              JOINT lMid1
              {
                OFFSET 8.24714 1.18213 3.41376
                CHANNELS 3 Zrotation Xrotation Yrotation
                JOINT lMid2
                {
                  OFFSET 3.10165 -0.590103 1.0647
                  CHANNELS 3 Zrotation Xrotation Yrotation
                  End Site
                  {
                    OFFSET 2.48547 -0.328903 0.83742
                  }
                }
              }
              JOINT lRing1
              {
                OFFSET 8.82822 0.546677 1.51678
                CHANNELS 3 Zrotation Xrotation Yrotation
                JOINT lRing2
                {
                  OFFSET 2.60934 -0.819778 -0.0198488
                  CHANNELS 3 Zrotation Xrotation Yrotation
                  End Site
                  {
                    OFFSET 2.33842 -0.294052 0.168128
                  }
                }
              }
              JOINT lPinky1
              {
                OFFSET 8.27202 -0.0477905 -0.4584
                CHANNELS 3 Zrotation Xrotation Yrotation
                JOINT lPinky2
                {
                  OFFSET 1.82734 -0.647385 -0.700984
                  CHANNELS 3 Zrotation Xrotation Yrotation
                  End Site
                  {
                    OFFSET 1.69225 -0.51767 -0.607171
                  }
                }
              }
            }
          }
        }
      }
    }
  }
  JOINT rButtock
  {
    OFFSET -8.77824 4.35084 1.2192
    CHANNELS 3 Zrotation Xrotation Yrotation
    JOINT rThigh
    {
      OFFSET 0 -1.70687 -2.19456
      CHANNELS 3 Zrotation Xrotation Yrotation
      JOINT rShin
      {
        OFFSET 0 -36.8199 0.73152
        CHANNELS 3 Zrotation Xrotation Yrotation
        JOINT rFoot
        {
          OFFSET 0.73152 -45.1104 -5.12064
          CHANNELS 3 Zrotation Xrotation Yrotation
          End Site
          {
            OFFSET -1.1221 -3.69964 12.103
          }
        }
      }
    }
  }
  JOINT lButtock
  {
    OFFSET 8.77824 4.35084 1.2192
    CHANNELS 3 Zrotation Xrotation Yrotation
    JOINT lThigh
    {
      OFFSET 0 -1.70687 -2.19456
      CHANNELS 3 Zrotation Xrotation Yrotation
      JOINT lShin
      {
        OFFSET 0 -36.8199 0.73152
        CHANNELS 3 Zrotation Xrotation Yrotation
        JOINT lFoot
        {
          OFFSET -0.73152 -45.1104 -5.12064
          CHANNELS 3 Zrotation Xrotation Yrotation
          End Site
          {
            OFFSET 1.1221 -3.69964 12.103
          }
        }
      }
    }
  }
}
MOTION
Frames:	8
Frame Time:	0.00833333
84.5545 161.395 275.266 -177.13 20.0639 -197.8 -3.46347 44.5085 -5.72056 0.640021 -7.25752 0.247011 -26.839 9.72044 4.98912 19.8136 -7.63829 15.3068 -0.0 0.0 0.0 -0.0 0.0 0.0 3.92192e-14 -1.85965e-13 -4.55785e-13 42.2094 -5.88995 116.373 -20.9176 -14.2116 40.9566 -0.322132 15.9404 2.30054 1.52411e-09 3.12475e-09 1.64567e-09 2.6554e-09 5.39582e-09 2.82527e-09 1.5241e-09 3.12475e-09 1.64566e-09 7.73091 5.47488 0.417314 1.5241e-09 3.12475e-09 1.64568e-09 2.90554 0.965183 0.102902 1.52411e-09 3.12476e-09 1.64568e-09 10.2786 0.731801 0.0259123 1.5241e-09 3.12476e-09 1.64569e-09 2.22167 -0.733487 -0.20892 3.91224e-14 -1.85962e-13 -4.56044e-13 -29.8178 -44.6543 -75.774 16.6282 -9.28424 -31.0105 0.43372 18.3928 -2.67852 6.727e-10 -3.20382e-09 1.02443e-09 1.17123e-09 -5.52808e-09 1.75992e-09 6.72697e-10 -3.20383e-09 1.02443e-09 -7.73091 5.47488 -0.417314 6.72701e-10 -3.20383e-09 1.02443e-09 -2.90554 0.965183 -0.102902 6.72698e-10 -3.20383e-09 1.02442e-09 -10.2786 0.731801 -0.0259123 6.72702e-10 -3.20383e-09 1.02442e-09 -2.22167 -0.733487 0.20892 -2.03217e-16 0.0 -3.88251e-19 119.822 -71.5927 106.959 -176.834 59.5766 177.426 -5.54243 -8.46115 -13.1601 2.03217e-16 0.0 3.88251e-19 48.8641 -50.099 57.6064 6.74327 83.5818 -8.87317 -167.096 -36.5359 18.9363
84.548 161.55 274.869 -177.101 19.9673 -198.251 -3.31026 44.5504 -5.91674 0.737238 -7.06352 0.256989 -26.8545 9.91138 5.02773 19.7209 -7.69546 15.3144 -0.0 0.0 0.0 -0.0 0.0 0.0 2.22798e-14 -2.8307e-13 -7.37839e-13 41.9019 -5.8311 116.034 -20.9671 -14.2789 41.0826 -0.320599 15.9035 2.29493 2.3118e-09 4.78649e-09 2.55027e-09 4.02849e-09 8.26506e-09 4.3782e-09 2.31179e-09 4.78649e-09 2.55027e-09 7.73091 5.47488 0.417314 2.31179e-09 4.78649e-09 2.55028e-09 2.90554 0.965183 0.102902 2.3118e-09 4.78649e-09 2.55028e-09 10.2786 0.731801 0.0259123 2.31179e-09 4.7865e-09 2.55029e-09 2.22167 -0.733487 -0.20892 2.21997e-14 -2.8307e-13 -7.38087e-13 -29.8583 -44.2518 -75.4742 16.755 -9.40807 -31.2832 0.431494 18.3474 -2.67143 1.04317e-09 -4.82945e-09 1.3016e-09 1.81232e-09 -8.32936e-09 2.2326e-09 1.04317e-09 -4.82946e-09 1.3016e-09 -7.73091 5.47488 -0.417314 1.04317e-09 -4.82946e-09 1.3016e-09 -2.90554 0.965183 -0.102902 1.04317e-09 -4.82946e-09 1.3016e-09 -10.2786 0.731801 -0.0259123 1.04317e-09 -4.82946e-09 1.30159e-09 -2.22167 -0.733487 0.20892 -2.03217e-16 0.0 -3.88251e-19 124.457 -71.23 111.142 -176.839 59.5855 177.458 -5.57372 -8.84227 -12.8983 2.03217e-16 0.0 3.88251e-19 48.4958 -49.5802 57.2354 7.07032 83.9391 -9.3103 -167.001 -36.2088 19.1831
84.4796 161.708 274.467 -177.33 19.7735 -198.74 -3.19676 44.5878 -6.10463 0.835742 -6.867 0.267688 -26.8751 10.0221 5.04597 19.7308 -7.71517 15.3135 -0.0 0.0 0.0 -0.0 0.0 0.0 -4.60754e-14 -3.22104e-13 -6.93783e-13 41.6717 -5.77908 115.741 -21.008 -14.3347 41.1874 -0.321547 15.9259 2.29834 1.81699e-09 3.86745e-09 2.15994e-09 3.16797e-09 6.67798e-09 3.70827e-09 1.81699e-09 3.86745e-09 2.15994e-09 7.73091 5.47488 0.417314 1.81699e-09 3.86745e-09 2.15994e-09 2.90554 0.965183 0.102902 1.81699e-09 3.86745e-09 2.15995e-09 10.2786 0.731801 0.0259123 1.81698e-09 3.86745e-09 2.15996e-09 2.22167 -0.733487 -0.20892 -4.60996e-14 -3.22108e-13 -6.94031e-13 -29.906 -43.8761 -75.2263 16.8811 -9.53234 -31.5557 0.431362 18.3446 -2.671 7.31012e-10 -3.77933e-09 7.82623e-10 1.26593e-09 -6.516e-09 1.34025e-09 7.31009e-10 -3.77934e-09 7.82625e-10 -7.73091 5.47488 -0.417314 7.31012e-10 -3.77933e-09 7.82622e-10 -2.90554 0.965183 -0.102902 7.31007e-10 -3.77933e-09 7.8262e-10 -10.2786 0.731801 -0.0259123 7.31014e-10 -3.77933e-09 7.82619e-10 -2.22167 -0.733487 0.20892 -2.03217e-16 0.0 -3.88251e-19 128.518 -70.9008 114.783 -176.821 59.9578 177.465 -5.62476 -9.06206 -12.8255 2.03217e-16 0.0 3.88251e-19 48.1683 -49.1293 56.8999 7.35047 84.3028 -9.78165 -167.042 -35.853 19.1969
84.4189 161.862 274.045 -177.497 19.6093 -199.205 -3.10364 44.6176 -6.29071 0.935365 -6.66839 0.278828 -26.9044 10.0897 5.05164 19.8177 -7.71434 15.3064 -0.0 0.0 0.0 -0.0 0.0 0.0 -1.52768e-13 -3.33357e-13 -4.58925e-13 41.4872 -5.73134 115.473 -21.0457 -14.3862 41.2844 -0.32421 15.9891 2.30796 5.30197e-10 1.3681e-09 9.87736e-10 9.28297e-10 2.36223e-09 1.69631e-09 5.30196e-10 1.36811e-09 9.87728e-10 7.73091 5.47488 0.417314 5.30193e-10 1.36811e-09 9.87731e-10 2.90554 0.965183 0.102902 5.30203e-10 1.36811e-09 9.87737e-10 10.2786 0.731801 0.0259123 5.30193e-10 1.36811e-09 9.87748e-10 2.22167 -0.733487 -0.20892 -1.52709e-13 -3.33367e-13 -4.5918e-13 -29.938 -43.511 -74.9874 17.0126 -9.6627 -31.842 0.432321 18.3641 -2.67404 1.06601e-11 -1.11142e-09 -2.42668e-10 9.05254e-12 -1.91211e-09 -4.20637e-10 1.06587e-11 -1.11143e-09 -2.42663e-10 -7.73091 5.47488 -0.417314 1.06608e-11 -1.11142e-09 -2.42667e-10 -2.90554 0.965183 -0.102902 1.06541e-11 -1.11142e-09 -2.42668e-10 -10.2786 0.731801 -0.0259123 1.06644e-11 -1.11142e-09 -2.42671e-10 -2.22167 -0.733487 0.20892 -2.03217e-16 0.0 -3.88251e-19 132.103 -70.6237 117.979 -176.78 60.6753 177.449 -5.67346 -9.17212 -12.8456 2.03217e-16 0.0 3.88251e-19 47.8692 -48.721 56.5834 7.6185 84.6727 -10.3061 -167.179 -35.4788 19.0381
84.4381 162.011 273.643 -177.307 19.5652 -199.527 -3.02103 44.6308 -6.46876 1.03083 -6.47443 0.28924 -26.9286 10.1476 5.05444 19.9206 -7.7082 15.2972 -0.0 0.0 0.0 -0.0 0.0 0.0 -2.5108e-13 -3.10717e-13 -1.60752e-13 41.3096 -5.66843 115.196 -21.0896 -14.4466 41.3967 -0.32627 16.0379 2.31539 -8.90731e-10 -1.47243e-09 -4.13859e-10 -1.54606e-09 -2.54344e-09 -7.10308e-10 -8.9073e-10 -1.47242e-09 -4.1387e-10 7.73091 5.47488 0.417314 -8.90735e-10 -1.47243e-09 -4.13871e-10 2.90554 0.965183 0.102902 -8.90724e-10 -1.47243e-09 -4.13863e-10 10.2786 0.731801 0.0259123 -8.90732e-10 -1.47243e-09 -4.13853e-10 2.22167 -0.733487 -0.20892 -2.50946e-13 -3.10733e-13 -1.6101e-13 -29.9488 -43.1377 -74.7306 17.1546 -9.80525 -32.1518 0.433255 18.383 -2.677 -8.23312e-10 1.96859e-09 -1.33162e-09 -1.44438e-09 3.40161e-09 -2.28971e-09 -8.23312e-10 1.96858e-09 -1.33161e-09 -7.73091 5.47488 -0.417314 -8.23311e-10 1.96858e-09 -1.33162e-09 -2.90554 0.965183 -0.102902 -8.23319e-10 1.96859e-09 -1.33162e-09 -10.2786 0.731801 -0.0259123 -8.23306e-10 1.96859e-09 -1.33162e-09 -2.22167 -0.733487 0.20892 -2.03217e-16 0.0 -3.88251e-19 135.152 -70.4039 120.706 -176.72 61.6359 177.409 -5.66362 -9.21866 -12.7809 2.03217e-16 0.0 3.88251e-19 47.574 -48.3318 56.2662 7.89403 85.0391 -10.8692 -167.353 -35.1308 18.7967
84.445 162.161 273.227 -177.233 19.4905 -199.928 -2.93926 44.6188 -6.63248 1.1169 -6.29183 0.297758 -26.9342 10.229 5.06409 19.9782 -7.71204 15.2896 -0.0 0.0 0.0 -0.0 0.0 0.0 -2.94293e-13 -2.48074e-13 7.32521e-14 41.1002 -5.57139 114.879 -21.1489 -14.529 41.5474 -0.325362 16.0173 2.31224 -1.78794e-09 -3.41504e-09 -1.49236e-09 -3.11063e-09 -5.90026e-09 -2.56417e-09 -1.78794e-09 -3.41504e-09 -1.49237e-09 7.73091 5.47488 0.417314 -1.78794e-09 -3.41504e-09 -1.49237e-09 2.90554 0.965183 0.102902 -1.78793e-09 -3.41504e-09 -1.49236e-09 10.2786 0.731801 0.0259123 -1.78794e-09 -3.41504e-09 -1.49235e-09 2.22167 -0.733487 -0.20892 -2.94129e-13 -2.48092e-13 7.30037e-14 -29.9346 -42.737 -74.4308 17.3122 -9.96583 -32.4948 0.433037 18.3787 -2.67633 -1.47633e-09 4.25499e-09 -2.04159e-09 -2.58045e-09 7.34449e-09 -3.50659e-09 -1.47633e-09 4.25498e-09 -2.04157e-09 -7.73091 5.47488 -0.417314 -1.47633e-09 4.25499e-09 -2.04158e-09 -2.90554 0.965183 -0.102902 -1.47634e-09 4.25499e-09 -2.04158e-09 -10.2786 0.731801 -0.0259123 -1.47633e-09 4.255e-09 -2.04159e-09 -2.22167 -0.733487 0.20892 -2.03217e-16 0.0 -3.88251e-19 137.599 -70.2474 122.927 -176.645 62.7375 177.341 -5.53829 -9.24785 -12.4534 2.03217e-16 0.0 3.88251e-19 47.2592 -47.938 55.9311 8.18733 85.3921 -11.4471 -167.506 -34.8545 18.5601
84.404 162.309 272.785 -177.39 19.347 -200.394 -2.87078 44.5803 -6.77493 1.19036 -6.13071 0.30418 -26.91 10.3496 5.08739 19.9739 -7.73676 15.2899 -0.0 0.0 0.0 -0.0 0.0 0.0 -2.6315e-13 -1.10789e-13 2.42708e-13 40.8394 -5.43986 114.498 -21.226 -14.6365 41.7451 -0.319659 15.8833 2.29184 -1.95103e-09 -4.22757e-09 -2.28086e-09 -3.40181e-09 -7.30998e-09 -3.92499e-09 -1.95103e-09 -4.22756e-09 -2.28087e-09 7.73091 5.47488 0.417314 -1.95103e-09 -4.22756e-09 -2.28087e-09 2.90554 0.965183 0.102902 -1.95102e-09 -4.22756e-09 -2.28086e-09 10.2786 0.731801 0.0259123 -1.95103e-09 -4.22757e-09 -2.28086e-09 2.22167 -0.733487 -0.20892 -2.6302e-13 -1.10805e-13 2.42491e-13 -29.8641 -42.3002 -74.0686 17.4856 -10.1445 -32.8752 0.430913 18.3358 -2.66962 -2.0062e-09 5.77011e-09 -2.30654e-09 -3.49814e-09 9.95354e-09 -3.95637e-09 -2.0062e-09 5.7701e-09 -2.30653e-09 -7.73091 5.47488 -0.417314 -2.0062e-09 5.7701e-09 -2.30653e-09 -2.90554 0.965183 -0.102902 -2.0062e-09 5.77011e-09 -2.30653e-09 -10.2786 0.731801 -0.0259123 -2.00619e-09 5.77011e-09 -2.30654e-09 -2.22167 -0.733487 0.20892 -2.03217e-16 0.0 -3.88251e-19 139.424 -70.1804 124.672 -176.543 64.0162 177.232 -5.24545 -9.35307 -11.6947 2.03217e-16 0.0 3.88251e-19 46.9184 -47.5314 55.5908 8.45824 85.7373 -12.0195 -167.664 -34.6435 18.2853
84.3836 162.44 272.342 -177.416 19.274 -200.721 -2.81614 44.5199 -6.90095 1.25465 -5.98471 0.309093 -26.8659 10.4896 5.11777 19.9403 -7.77194 15.2942 -0.0 0.0 0.0 -0.0 0.0 0.0 -1.84832e-13 8.68742e-14 4.04403e-13 40.552 -5.28386 114.077 -21.3152 -14.7617 41.977 -0.311001 15.6752 2.2602 -1.74252e-09 -4.53811e-09 -3.01388e-09 -3.04944e-09 -7.85592e-09 -5.19393e-09 -1.74251e-09 -4.5381e-09 -3.01389e-09 7.73091 5.47488 0.417314 -1.74252e-09 -4.5381e-09 -3.01389e-09 2.90554 0.965183 0.102902 -1.74251e-09 -4.5381e-09 -3.01388e-09 10.2786 0.731801 0.0259123 -1.74252e-09 -4.5381e-09 -3.01387e-09 2.22167 -0.733487 -0.20892 -1.84779e-13 8.68643e-14 4.04232e-13 -29.7527 -41.8372 -73.6661 17.6714 -10.3377 -33.2876 0.427655 18.2694 -2.65926 -2.52456e-09 7.04235e-09 -2.34522e-09 -4.39286e-09 1.21412e-08 -4.01531e-09 -2.52456e-09 7.04235e-09 -2.34521e-09 -7.73091 5.47488 -0.417314 -2.52456e-09 7.04234e-09 -2.34522e-09 -2.90554 0.965183 -0.102902 -2.52457e-09 7.04236e-09 -2.34522e-09 -10.2786 0.731801 -0.0259123 -2.52455e-09 7.04236e-09 -2.34522e-09 -2.22167 -0.733487 0.20892 -2.03217e-16 0.0 -3.88251e-19 140.735 -70.2218 126.015 -176.405 65.5052 177.076 -4.82473 -9.48076 -10.6394 2.03217e-16 0.0 3.88251e-19 46.5643 -47.1251 55.2488 8.71774 86.0773 -12.606 -167.844 -34.4788 17.9474
